<?xml version="1.0" standalone="no"?><!DOCTYPE svg PUBLIC "-//W3C//DTD SVG 1.1//EN"
        "http://www.w3.org/Graphics/SVG/1.1/DTD/svg11.dtd">
<svg class="icon" width="128px" height="128.00px" viewBox="0 0 1024 1024" version="1.1"
     xmlns="http://www.w3.org/2000/svg">
    <path d="M256 512 512 960 768 512Z" fill="#FFFFFF"/>
    <path d="M805 345.2c-1.6-0.8-3-1.6-4.6-2.6-8.8-5.6-16.8-17-17.4-25.4l0.2-1.4c6.4-18 10-38.4 10-59.6 0-106.2-86-192.2-192.2-192.2-62.8 0-118.4 30-153.6 76.6 0 0-18.2 28-21.6 58 0 0 2.2-38.8 8.4-63-14.8-5-30.8-7.6-47.2-7.6-83.4 0-151.2 67.6-151.2 151.2 0 12.8 1.6 25.2 4.6 37 0 0.8-0.2 1.4-0.4 2-1.8 10.2-8 19-16.8 24.6-1.4 1-3 1.8-4.4 2.6-16.4 10-27 27.2-27 46.8 0 30.8 27 56 59.8 56l8.2 0 504 0 8.2 0c32.8 0 59.6-25 59.6-56C832 372.6 821.2 355.2 805 345.2z"
          fill="#FFFFFF"/>
</svg>