<?xml version="1.0" standalone="no"?><!DOCTYPE svg PUBLIC "-//W3C//DTD SVG 1.1//EN" "http://www.w3.org/Graphics/SVG/1.1/DTD/svg11.dtd"><svg class="icon" width="128px" height="128.00px" viewBox="0 0 1024 1024" version="1.1" xmlns="http://www.w3.org/2000/svg"><path d="M906.5 355.8c10.7-24.8 12.6-53.9 5.6-86.5-5.6-26-16.6-53.6-32.7-82.1-27.8-49.1-67.8-93.9-95.1-106.6-3.4-1.6-7.1-2.4-11-2.4-12.1 0-20.9 6.2-46.9 33.3-15.4 16.1-36.1 38.8-61.4 67.7-48.1 54.9-108.9 127.2-166.9 198.4-28.7 35.3-76.9 85.6-128 139-63.1 65.9-134.6 140.6-185.5 203.8-28.4 35.3-48.1 64-60.1 87.6-6.3 12.5-25.6 50.4-6.5 79.1 11.3 17 32.1 29 63.4 36.7 25.1 6.1 56.3 9.2 92.7 9.2 62.1 0 134.7-9.4 199.1-25.9C524.6 894 596 870 643.7 830.6c43.7-36.1 58.6-88.3 74.3-143.5 9.4-33.2 19.2-67.5 35.8-102.8 15.3-32.6 36.4-63.3 58.6-92.9l36.3 123.3 48.6-11.2c-0.1-0.5-7.8-47.6-10.4-102.5-3.4-71.2 3.9-109 11.3-128.7 3.2-5.6 6-11.1 8.3-16.5zM631.1 494.2c-19.6 38.9-35.2 69.7-43.2 88.5-15.6 36.4-38.4 66.4-65.9 86.8-21.3 15.8-45.5 25.4-64.9 25.9h-1.3c-16.8 0-39-7-59.5-18.7-21-12-37.1-27-44.2-41.1-1.9-3.7-2.3-14 15.8-40.6 3.4-5 7.3-10.3 11.5-15.9 9-9.5 18-18.8 26.8-28 51.8-54.1 100.6-105.2 130.6-142 53.7-66 111-134.2 157.2-187.2 46.3-53.1 69.3-77.2 80.4-88 0.3 0.3 0.7 0.6 1.1 0.9 0.5 21.6-8.3 63.5-42.2 144.4-30.1 72.2-70 151.4-102.2 215z m77.6 68.8c-18.3 39-29.1 76.9-38.6 110.3-6.4 22.3-12.1 42.6-19.2 60.6l-26-12.9c-6.2-3.1-13.7-0.5-16.8 5.6-3.1 6.2-0.5 13.7 5.6 16.8l26.7 13.3c-7.5 13.7-16.5 25.6-28.4 35.3-31.7 26.2-85.4 49.8-151.1 66.6-60.6 15.5-128.7 24.3-186.8 24.3-77 0-108.1-15-114.2-23.3-0.3-1.4-1-8.4 8-26.6h39.4c6.9 0 12.5-5.6 12.5-12.5s-5.6-12.5-12.5-12.5h-25c10.4-16.2 25.4-37 47.3-63.7 3-3.7 6.1-7.4 9.2-11.1v23.4c0 6.9 5.6 12.5 12.5 12.5s12.5-5.6 12.5-12.5v-48.7c0-1.1-0.2-2.2-0.4-3.2 19.8-22.6 41.2-46 63.1-69.5 0.4 4 1.5 7.9 3.4 11.5 17.5 34.9 70.9 68.1 115.1 73v24.7c0 6.9 5.6 12.5 12.5 12.5s12.5-5.6 12.5-12.5v-25.1c35.8-5.3 79.6-30.4 113.4-77.5l21.4 12.7c2 1.2 4.2 1.8 6.4 1.8 4.3 0 8.4-2.2 10.8-6.1 3.5-5.9 1.6-13.6-4.4-17.1l-20.7-12.3c5.1-8.8 9.8-18.2 14.1-28.2 7.7-18 23.9-50 42.5-87 14.4-28.5 28.5-56.7 41.9-84.2l13.8 18.7c2.5 3.3 6.2 5.1 10.1 5.1 2.6 0 5.2-0.8 7.4-2.4 5.6-4.1 6.7-11.9 2.6-17.5l-20-27.1c-0.5-0.7-1.1-1.3-1.7-1.9 30.5-63.3 56.6-121.9 73.3-170.4l17.1 12.5c2.2 1.6 4.8 2.4 7.4 2.4 3.8 0 7.6-1.8 10.1-5.1 4.1-5.6 2.9-13.4-2.7-17.5L789 200.7c4.5-15.4 7.8-29.5 9.7-42.1 12.3 14.4 25.5 32.7 37.2 53.3 11.1 19.6 19.2 38.4 24.2 55.9l-26.3 13.8c-6.1 3.2-8.5 10.8-5.2 16.9 2.2 4.3 6.6 6.7 11.1 6.7 2 0 4-0.5 5.8-1.4l19.9-10.4c1.8 15.8 0.4 29.8-4.2 41.3-2.9 4.9-5.6 10.3-8 16.3-7.4 13.2-17.2 27.5-28.3 42.4-0.7-0.1-1.4-0.2-2.2-0.2h-34.6c-6.9 0-12.5 5.6-12.5 12.5s5.6 12.5 12.5 12.5H806c-2.4 3.1-4.9 6.3-7.4 9.5-31.1 39.9-66.5 85.3-89.9 135.3z" fill="#ffffff" /><path d="M384.8 732.2c0-6.9-5.6-12.5-12.5-12.5h-33.5c-6.9 0-12.5 5.6-12.5 12.5s5.6 12.5 12.5 12.5h33.5c6.9 0 12.5-5.6 12.5-12.5zM376.4 806.4c-3.4-6-11-8.2-17-4.8s-8.2 11-4.8 17l13.5 24.1c2.3 4.1 6.5 6.4 10.9 6.4 2.1 0 4.2-0.5 6.1-1.6 6-3.4 8.2-11 4.8-17l-13.5-24.1zM491.8 788.1h-28.5c-6.9 0-12.5 5.6-12.5 12.5s5.6 12.5 12.5 12.5h28.5c6.9 0 12.5-5.6 12.5-12.5s-5.6-12.5-12.5-12.5zM547.3 719.7c-6.9 0-12.5 5.6-12.5 12.5v24.4c0 6.9 5.6 12.5 12.5 12.5s12.5-5.6 12.5-12.5v-24.4c0-6.9-5.6-12.5-12.5-12.5zM691.3 528.1h-26c-6.9 0-12.5 5.6-12.5 12.5s5.6 12.5 12.5 12.5h26c6.9 0 12.5-5.6 12.5-12.5s-5.6-12.5-12.5-12.5zM788.1 350.2c1.5 0 3-0.3 4.4-0.8 6.5-2.4 9.7-9.6 7.3-16.1l-11.3-30c-2.4-6.5-9.6-9.7-16.1-7.3-6.5 2.4-9.7 9.6-7.3 16.1l11.3 30c1.9 5 6.7 8.1 11.7 8.1zM299.5 810.2c-5.4-4.2-13.3-3.3-17.5 2.2l-20.6 26.5c-4.2 5.4-3.3 13.3 2.2 17.5 2.3 1.8 5 2.6 7.7 2.6 3.7 0 7.4-1.7 9.9-4.8l20.6-26.5c4.2-5.4 3.2-13.2-2.3-17.5z" fill="#ffffff" /></svg>