<?xml version="1.0" standalone="no"?><!DOCTYPE svg PUBLIC "-//W3C//DTD SVG 1.1//EN" "http://www.w3.org/Graphics/SVG/1.1/DTD/svg11.dtd"><svg class="icon" width="128px" height="128.00px" viewBox="0 0 1024 1024" version="1.1" xmlns="http://www.w3.org/2000/svg"><path d="M955.8 477.9c-0.7-25.2-16.9-46.3-39.2-54.5l-194-71.5-14.8-182.6c-1.7-20.9-14.4-40.3-34.8-49.7-20.4-9.4-43.3-6.3-60.3 6l-173.3 126L230 192c-21.2-6-44.9-0.1-60.8 17.3s-19.6 41.6-11.6 62.1L223.9 442 98.1 651.3c-11.3 18.8-11.8 43.1 0.6 62.8s34.5 29.8 56.3 27.8l256-23.5 176.5 163c15.9 14.7 39.1 20.2 60.8 12.5s36.2-26.7 39.3-48L720 622.4l199.9-87.7c21.8-9.6 36.7-31.6 35.9-56.8zM673.2 363.4l-28 2.1c-6.9 0.5-12 6.5-11.5 13.4 0.5 6.6 6 11.6 12.5 11.6 0.3 0 0.7 0 0.9-0.1l29.7-2.2 107.6 39.7-270.6-47.7 129.4-196.3c0.1 0 0.1 0 0.2 0.1 10.2 4.7 16.6 14.3 17.4 24.8l12.4 154.6z m-224.3-57.3l160.5-116.5-120.6 182.7-191.6-109.4 151.7 43.2zM276.4 451.4l31.6-7.3c6.7-1.6 10.9-8.3 9.4-15-1.6-6.7-8.3-10.9-15-9.4l-30.9 7.1-52.9-136.1c-4-10.3-2.1-22.4 5.8-31.1 2-2.2 4.2-4 6.7-5.5L458.8 384l-89.1 20.4c-6.7 1.6-10.9 8.3-9.4 15 1.4 5.8 6.5 9.7 12.2 9.7 0.9 0 1.9-0.1 2.9-0.3l69.6-15.9-287.8 241.8c0.5-4.1 1.9-8 4-11.6l115.2-191.7z m160.7 223l7.2-29.9c1.6-6.7-2.5-13.5-9.2-15.1s-13.5 2.5-15.1 9.2l-7.1 29.3-223.3 20.5c-8.5 0.8-17.2-2.2-23.6-8.3l305.7-257L436 571.6c-1.6 6.7 2.5 13.5 9.2 15.1 0.9 0.2 1.9 0.3 2.9 0.3 5.7 0 10.8-3.9 12.2-9.5l33.8-140.6 118.3 389.9c-7.1-0.3-13.8-3.2-19-7.9L437.1 674.4z m417.2-165.8l-163.2 71.6-81.6-86.2c-4.8-5-12.7-5.2-17.7-0.5-5 4.8-5.2 12.7-0.5 17.7l81.7 86.2-29.4 203.7c-0.9 6.1-3.7 11.8-7.9 16.3L519.9 436l24.8 26.1c2.5 2.6 5.8 3.9 9.1 3.9 3.1 0 6.1-1.1 8.6-3.4 5-4.8 5.2-12.7 0.5-17.7l-35-36.9 341.3 60.2c1.8 3.6 2.8 7.7 2.9 12 0.5 12.6-6.9 23.6-17.8 28.4z" fill="#ffffff" /></svg>