<?xml version="1.0" standalone="no"?><!DOCTYPE svg PUBLIC "-//W3C//DTD SVG 1.1//EN" "http://www.w3.org/Graphics/SVG/1.1/DTD/svg11.dtd"><svg class="icon" width="128px" height="128.00px" viewBox="0 0 1024 1024" version="1.1" xmlns="http://www.w3.org/2000/svg"><path d="M877.5 539.4l-30-56.5c-16.1-30.3-56.3-55.6-89.7-48.3L647.3 226.8c-25.3-47.6-62-87.4-106-115.2-43.3-27.2-91.6-41.7-139.8-41.7-38.3 0-74.5 9-107.8 26.7l-42.9 22.8c-10.8 5.8-19.6 15.5-23.8 28s-1.5 27.5 2.2 37.8c41 102.3 32.4 190.5-57.7 249.7-14.8 10.2-21.9 20.3-24.9 32.8s-1 25 4.7 35.4l5.5 10.1 85.7 158.4c13.7 26.1-0.1 46.9-4.6 57.2-9.9 22.9-6.9 52.4 4.3 76l30 56.5C295.4 904 341.9 925 386 901.5l163.9-87.1 49.8 93.7c16.1 30.3 46 49.2 78 49.2 12.7 0 24.7-3 35.7-8.9 19.7-10.5 33.6-28.8 39.1-51.6 5.2-21.6 2-44.8-8.9-65.3l-49.8-93.7 153.5-81.6c39.7-21.1 53.2-73.5 30.2-116.8z m-592-353.1c-11.2-35 39.1-56.6 49-20.4 22.2 81-0.8 164.9-54.2 218 5.7-12.8 10.3-26.2 13.8-40.2 12.6-50.6 8.3-104.7-8.6-157.4z m66.4 129.9l31.7 8.8c1.1 0.4 2.2 0.5 3.3 0.5 5.5 0 10.5-3.6 12.1-9.2 1.8-6.7-2-13.6-8.7-15.4l-31.2-8.7c0.2-0.9 0.5-1.8 0.7-2.7 12.6-52.8 8.7-109.1-10.7-161.9 16.8-5.1 34.4-7.7 52.5-7.7 80.3 0 159.5 51.2 201.6 130.4l25.5 47.9-33.2 15.5c-6.3 2.9-9 10.3-6.1 16.6 2.1 4.5 6.6 7.2 11.3 7.2 1.7 0 3.5-0.4 5.3-1.1l34.4-16 64.3 120.9c4.8 9 6.2 19.8 3 30.3-2 6.7-5.6 12.4-10.3 17l-30.7-20.4c-5.7-3.8-13.5-2.2-17.3 3.5s-2.3 13.5 3.5 17.3l21 14-118.1 63.9-9.2-27.5c-2.2-6.6-9.3-10.1-15.8-7.9-6.6 2.2-10.1 9.3-7.9 15.8l10.6 31.7-134.8 72.9-38-71.5 21.3-19.1c5.2-4.6 5.6-12.5 1-17.6-4.5-5.2-12.5-5.6-17.6-1l-16.8 15-72.7-136.8c34.5-26 60.7-61.9 76-104.7zM197.3 483l17-16.3c8.7-8.4 21.2-12.7 34-10.7 12.9 2.1 23.3 10 29 20.7l99.4 187-27.9 15.1c-9 4.9-19.9 6.3-30.4 3.1s-18.9-10.3-23.8-19.3L197.3 483z m194.2 359c-14.4 7.6-31.7 9.8-48.5 4.8-16.8-5.1-30-16.4-37.8-30.8l-18.8-34.7c-10.4-22.7-2.4-39.2 17.1-49.2l41.6-22.7L410.2 832l-18.7 10z m308 13.1c5.1 9.7 6.7 20.4 4.4 30.1-2.1 8.6-7 15.4-13.9 19-3.8 2-7.9 3-12.3 3-13.3 0-26.5-8.9-33.9-22.6l-18.3-34.4c-7.7-14.5-9.9-31.9-4.7-48.8s15.8-29.6 30.3-37.3l48.4 91z m124.3-243L432.3 820.3 367 697.5l390.2-210.7c18.4-9.7 35.7-3.7 46.1 19.6l30 56.5c10.1 18.9 5.9 41-9.5 49.2z" fill="#ffffff" /><path d="M496.7 317.5c6.9 0 12.5-5.6 12.5-12.5v-35c0-6.9-5.6-12.5-12.5-12.5s-12.5 5.6-12.5 12.5v35c0 6.9 5.6 12.5 12.5 12.5zM545.5 423.8c0.8 0 1.6 0 2.4-0.2l36-7c6.8-1.4 11.2-7.9 9.9-14.7-1.4-6.8-7.9-11.2-14.7-9.9l-36 7c-6.8 1.4-11.2 7.9-9.9 14.7 1.2 6 6.4 10.1 12.3 10.1zM463.2 494.8c0 6.9 5.6 12.5 12.5 12.5s12.5-5.6 12.5-12.5v-32.3c0-6.9-5.6-12.5-12.5-12.5s-12.5 5.6-12.5 12.5v32.3zM412.7 207.5c1.4 0 2.9-0.2 4.4-0.8l38-14c6.5-2.4 9.8-9.6 7.4-16.1s-9.6-9.8-16.1-7.4l-38 14c-6.5 2.4-9.8 9.6-7.4 16.1 1.8 5.1 6.6 8.2 11.7 8.2zM353.9 448.5l37.4 1.8h0.6c6.6 0 12.2-5.2 12.5-11.9 0.3-6.9-5-12.8-11.9-13.1l-37.4-1.8c-6.9-0.3-12.8 5-13.1 11.9-0.3 6.9 5 12.8 11.9 13.1z" fill="#ffffff" /></svg>