<?xml version="1.0" standalone="no"?><!DOCTYPE svg PUBLIC "-//W3C//DTD SVG 1.1//EN" "http://www.w3.org/Graphics/SVG/1.1/DTD/svg11.dtd"><svg class="icon" width="128px" height="128.00px" viewBox="0 0 1024 1024" version="1.1" xmlns="http://www.w3.org/2000/svg"><path d="M450.9 356.7c2.4 2.1 5.3 3.2 8.3 3.2 3.4 0 6.9-1.4 9.4-4.2 4.6-5.2 4.1-13.1-1-17.6-7.6-6.7-14.8-13.7-21.4-20.7-4.8-5-12.7-5.2-17.7-0.4s-5.2 12.7-0.4 17.7c7 7.4 14.7 14.8 22.8 22z" fill="#ffffff" /><path d="M854.7 384.6l10-29.6 0.2-0.9c4-15.5 5.8-47.8-26.6-90.3-27.3-35.9-72.7-71-134.9-104.5-80.9-43.5-141.4-52.7-177.9-52.7-42.3 0-75 12.3-92 34.7L415.2 168c-20.8 0.8-40.6 4.2-57.7 10-23.2 7.9-40.9 19.7-52.3 35l-54.1 71.9c-2 2.7-3.9 5.6-5.7 8.6-4.7 8-8.2 16.7-10.4 25.9-0.2 0.7-0.4 1.3-0.5 2-8.5 34.4 6.1 77.1 25.2 106.9L173 738c-7.7 24.8 0.4 58.1 22.1 91.6 16.6 25.5 48.9 62.6 108.4 94 47.5 25.1 95.7 38.3 139.3 38.3 43.7 0 79.2-13.2 99.9-37l0.5-0.6 197.1-257.5c54.8-5 84.4-25.2 100-42.5l1-1 0.5-0.5c8.9-10.3 15.3-22.1 19-35.1h-0.1l24.9-87 0.3-1.2c8.5-36.9-2.3-76.4-31.2-114.9zM525.5 156.5c43.5 0 98.2 16.6 154.2 46.7 69.6 37.5 103.1 70 118.9 90.8 16.2 21.3 20 38 18.1 46.9l-7.5 22.1c-11.2 3.8-29.2 6.4-54.7 4.6-44.6-3.1-95.2-18.6-142.6-43.6-99.5-52.4-141.7-102.2-149.7-136l6.6-9.6-0.1-0.1 5-7.3c5.5-6.7 22.2-14.5 51.8-14.5z m-117.1 61.9c-0.8 0.6-1.5 1.4-2.1 2.2-13.9 19-13.4 45.5 1.5 74.5 2.2 4.3 6.6 6.8 11.1 6.8 1.9 0 3.9-0.4 5.7-1.4 6.1-3.1 8.6-10.7 5.4-16.8-10.5-14.5-7-52 14.8-70.5 5.2 11.1 13.1 23.5 24.8 37.1 28.1 32.7 72.1 64.9 130.6 95.8 50.4 26.6 104.6 43 152.5 46.4 5.9 0.4 11.7 0.6 17.2 0.6 10.8 0 20.8-0.8 29.8-2.3l-1.4 4 0.2 0.2-8.6 25.7c-5.5 8.9-14.7 15.6-27.5 19.7-24.6 7.9-61.1 6.5-102.8-4.1-42.1-10.6-86.7-29.9-125.8-54.2-5.9-3.6-13.6-1.8-17.2 4s-1.8 13.6 4 17.2c41.2 25.6 88.4 45.9 132.9 57.2 26.1 6.6 50.2 9.9 71.5 9.9 16.9 0 32.1-2.1 45.1-6.3 7.2-2.3 14-5 19.6-9 17.9-12.6 40.1-8.8 46.8 2.5 2.4 9.7 2.9 19.8 0.7 29.9l-2.7 9.4c-10.9 7.1-24.9 12.8-39.2 15.4-6.8 1.2-11.3 7.7-10.1 14.5 1.1 6 6.4 10.3 12.3 10.3 0.7 0 1.5-0.1 2.2-0.2 8.2-1.5 16.9-3.9 25.4-7.3L812.6 574c-1.7 6-4.6 11.3-8.7 16.1l-0.3 0.3c-13.5 13.6-51.1 26.6-106 25.7-46.2-0.8-119.4-11.7-205.7-58.8-82.4-45-143.3-93.3-177.4-139v-0.1l-2.4-3.2c-21.2-29.5-31.2-57.9-28.4-83.7 1.4-5 3-9.1 4.9-12.6 0.8-1.4 1.7-2.7 2.7-4l23.6-31.3c6.9 19.8 18.9 40.3 36 61.3 80.3 98.4 257 186.1 394.1 195.4h0.9c6.5 0 12-5 12.5-11.6 0.5-6.9-4.7-12.9-11.6-13.3-131.1-9-299.9-92.6-376.4-186.3-20.3-24.8-32.5-49-36.1-71l11.3-15c9.2-12.7 33.6-22 62.8-24.5z m96.1 674.2c-10.9 12.1-33.9 19.3-61.7 19.3-24.8 0-65-5.7-116-32.6-28.2-14.9-49-31-64.1-45.9l51.5-12.3c3.5-0.8 6.5-3.2 8.2-6.4s1.9-7 0.6-10.4l-17.2-43.9 50.3-15.5c6.6-2 10.3-9 8.3-15.6s-9-10.3-15.6-8.3l-63.1 19.5c-3.3 1-6.1 3.4-7.6 6.5s-1.6 6.8-0.4 10l16.9 43-50.5 12c-2.7-3.5-5-6.9-7-10-15.8-24.2-18.3-42.9-16.2-49.6l27.1-96.9 39.5 21.9c1.9 1.1 4 1.6 6.1 1.6 3.7 0 7.4-1.7 9.8-4.7l37.5-47.4c4.3-5.4 3.4-13.3-2.1-17.6-5.4-4.3-13.3-3.4-17.6 2.1l-30.9 39.1-35.5-19.5L298 476.5l54.3 49.7-14.6 26.3c-3.4 6-1.2 13.6 4.9 17 1.9 1.1 4 1.6 6.1 1.6 4.4 0 8.7-2.3 10.9-6.4l12.9-23.2c27.9 20.4 59.8 40.3 95.4 59.8 34.9 19.1 68 32.8 98.5 42.5 0 0 45.1 11.3 58.7 43.1 8.6 20.2-1.3 50.1-1.3 50.1l-42.2-23.7c-5.8-3.3-13.1-1.4-16.7 4.2l-32 50.6-47.6-27.8c-6-3.5-13.6-1.5-17.1 4.5s-1.5 13.6 4.5 17.1l58 33.9c2 1.2 4.2 1.7 6.3 1.7 4.1 0 8.2-2.1 10.6-5.8l32.2-50.8 28.7 16.1-104 135.6z" fill="#ffffff" /><path d="M402.2 638.3l53.6 6.5-6.4 50.3c-0.9 6.8 4 13.1 10.8 14 0.5 0.1 1.1 0.1 1.6 0.1 6.2 0 11.6-4.6 12.4-10.9l8-62.8c0.4-3.3-0.5-6.6-2.5-9.3-2-2.6-5-4.3-8.4-4.7l-66.1-8.1c-6.8-0.8-13.1 4-13.9 10.9s4 13.2 10.9 14zM465.6 815l-36.9 36.9-39.1-30.8c-5.4-4.3-13.3-3.3-17.6 2.1-4.3 5.4-3.3 13.3 2.1 17.6l47.8 37.7c2.3 1.8 5 2.7 7.7 2.7 3.2 0 6.4-1.2 8.8-3.7l44.8-44.8c4.9-4.9 4.9-12.8 0-17.7-4.8-4.9-12.7-4.9-17.6 0z" fill="#ffffff" /></svg>