<?xml version="1.0" standalone="no"?><!DOCTYPE svg PUBLIC "-//W3C//DTD SVG 1.1//EN" "http://www.w3.org/Graphics/SVG/1.1/DTD/svg11.dtd"><svg class="icon" width="128px" height="128.00px" viewBox="0 0 1024 1024" version="1.1" xmlns="http://www.w3.org/2000/svg"><path d="M852.3 762.6L807.8 658c13.7-5.5 25.7-13 34.4-23.3 15.8-18.6 18-42.8 5.9-66.6L782 429c15.6-4.6 26.9-12.2 33.6-22.8 7-10.9 8.2-24.1 3.3-36.5l-87.7-263c-4.9-14.8-16.7-27-32.7-32-16-4.9-32.6-1.4-45 8L432.7 251c-13 9.1-19.3 23.7-17 39.5 1.5 10 6.3 20 14.4 29.9l-140.7 82.5-1.2 0.9c-19 14.4-27.4 34.6-23.7 56.9 1.9 11.2 6.8 22.5 14.7 34L188.1 552l-1.3 1.1c-23.3 19.6-33 46.2-27.3 74.9 9.6 47.9 59.7 90.9 100 118.4 31.2 21.4 68.3 41.5 108.6 59.3l-21.4 70.5c-2.5 6.9-3.8 17.5 2.3 30.4 10 21.4 37.6 41.5 72 52.5 19.5 6.2 37.6 9.3 53.6 9.3 15.1 0 28.2-2.8 38.7-8.3 13.6-7.2 19.1-17.2 21.3-24.4l22.6-71.1c44.8 8.6 87.6 13 126.1 13 9.6 0 19-0.3 28-0.8 56.4-3.4 97.1-17.2 120.9-40.8 19.3-19.2 26.5-43.8 20.7-71.1l-0.6-2.3z m-98.5 9.5c-18.2-7.7-37-15.7-56.9-20.2-18.9-4.3-38.8-5-57.9-5.8-23.7-0.9-46-1.8-66-8.7-22.1-7.7-42-22.7-61.2-37.2-13.9-10.5-28.3-21.4-43.6-29.4-15.9-8.4-32.5-14.7-48.5-20.7-24.4-9.2-47.4-17.9-62.2-32.3-22.1-21.5-30-48.3-33.8-78.7 7.1 5.5 14.9 10.9 23.3 16.4 46.6 30.5 108.8 58.8 180 81.9 51.6 16.7 101.8 27.6 147.8 32h2.1c23.4 0.1 47.1 6.7 68.1 20.6s36.3 33.1 45.5 54.7l13.9 32.7c0.8 4.7 0.6 8.8-0.6 12.5-16.2-3.4-32.7-10.4-50-17.8z m49.7-181.5c4 7.8 2.1 10.1 0.7 11.7-7.6 8.9-33.9 19.3-83.4 19.4h-0.6c-51.4 0-114.5-11.3-177.8-31.8-67-21.7-125.1-48.1-168-76.2-11-7.2-20.3-14.1-28-20.5 17 9.8 34.9 18.3 54.7 21.8 7.4 1.3 14.8 1.8 22.2 1.8 19.1 0 38.2-3.6 56.8-7.2 16.1-3.1 31.4-6 46.2-6.5 6.9-0.3 13.9-0.1 21 0.4V530c0 6.9 5.6 12.5 12.5 12.5s12.5-5.6 12.5-12.5v-24.2c1.2 0.1 2.4 0.3 3.5 0.4 25.3 2.8 51.5 5.7 76.1-0.2 4.6-1.1 9.2-2.5 13.6-4l3.7 20.7c1.1 6.1 6.3 10.3 12.3 10.3 0.7 0 1.5-0.1 2.2-0.2 6.8-1.2 11.3-7.7 10.1-14.5l-4.8-26.9c15.2-8.2 28.9-18 41.6-27.2 1.2-0.9 2.5-1.8 3.7-2.6 10.3 10.4 18.5 22.3 24.6 35l44.6 94z m-38.3-223.9c-3.8-2.4-7.5-5-11.1-7.6-10.3-7.2-21-14.7-32.6-18.9-13.6-4.9-27.6-6.6-41.1-8.2-15.2-1.8-29.6-3.5-38.9-9.9-13.4-9.3-20.1-25.1-27.3-41.8-3.9-9.1-7.9-18.6-13.1-26.7-5.3-8.3-11.7-16-17.9-23.4-5.5-6.6-10.8-13-15.1-19.5l71.2-54.2c9.9-7.6 23.2-10.4 36-6.4s22.2 13.8 26.2 25.6l63.7 191zM548.1 225.9c4.8 7 10.3 13.7 15.8 20.3 6 7.2 11.6 13.9 16.1 20.9l1.8 3-19.3 15c-5.4 4.2-6.4 12.1-2.2 17.5 2.5 3.2 6.1 4.8 9.9 4.8 2.7 0 5.4-0.9 7.7-2.6l14.7-11.5c7.5 17.5 16.4 36.7 34.7 49.3 14.3 9.9 32.5 12.1 50.2 14.2 12.1 1.4 24.6 2.9 35.5 6.9 8.5 3.1 17.4 9.3 26.8 15.9 2 1.4 3.9 2.8 6 4.1-4 0.4-7 0.6-7.5 0.6-22.4 0-62.2-4-124.9-22.9-99.8-30.1-136.5-61.4-145.7-74.2l80.4-61.3z m-77.5 128.7c31.6 20.1 75.9 39 128.2 54.8 19.4 5.9 37.9 10.7 55.2 14.5l6.6 0.9c18.7 2.6 37 9.3 53.6 20.4-20.9 15-42.6 30.3-68.2 36.5-20.3 4.9-43.2 2.4-67.5-0.3-17.3-1.9-35.3-3.9-53.2-3.2-16.7 0.6-33.6 3.9-49.9 7-24.7 4.7-48 9.1-70 5.3-23.8-4.2-45.2-17.6-67.9-31.9-7-4.4-14.1-8.8-21.3-13 0.4-0.4 0.8-0.7 1.2-1.1l153.2-89.9z m23.9 542.1l-6.4 20c-5.8 2-22.6 4.2-51.9-5.2-23.6-7.5-36.5-18.6-40.6-24l19-62.9c14.9 5.6 50.2 16.9 50.2 16.9 11 3.1 20.7 10.5 26.6 21.3 5.8 10.8 6.6 23 3.1 33.9z m213.7-69.8c-46.8 2.9-103.1-2.6-162.9-15.8-23.3-5.1-47-11.4-70.3-18.7-70.8-22.1-137.3-53.1-187.3-87.3-44.8-30.7-74.4-63.2-79.2-87-2.1-10.3 0.7-18.1 9.3-25.7l80.9-50.9c3.8 31.3 12.8 66.4 41.4 94.2 4.2 4.1 8.8 7.7 13.7 11.1L336.6 669c-4.2 5.5-3.2 13.3 2.2 17.5 2.3 1.8 5 2.6 7.6 2.6 3.7 0 7.4-1.7 9.9-4.8l19.5-25.1c11 5.2 22.9 9.7 35 14.3 15.3 5.8 31.1 11.8 45.6 19.4 5.1 2.7 10.1 5.8 15.1 9.1l-10.7 29.4c-2.4 6.5 1 13.7 7.5 16 1.4 0.5 2.9 0.8 4.3 0.8 5.1 0 9.9-3.1 11.7-8.2l8.3-22.8c1.3 1 2.7 2 4 3 20.8 15.7 42.2 31.8 68 40.8 17.2 6 35.3 8.1 53.4 9.2v24.2c0 6.9 5.6 12.5 12.5 12.5s12.5-5.6 12.5-12.5v-23.1c17 0.7 33.1 1.6 48.3 5 17.7 4 35.5 11.6 52.6 18.9 12.8 5.4 25.8 11 39 15.1-17 8.8-43.1 14.7-74.7 16.6z" fill="#ffffff" /></svg>