<?xml version="1.0" standalone="no"?><!DOCTYPE svg PUBLIC "-//W3C//DTD SVG 1.1//EN" "http://www.w3.org/Graphics/SVG/1.1/DTD/svg11.dtd"><svg class="icon" width="128px" height="128.00px" viewBox="0 0 1024 1024" version="1.1" xmlns="http://www.w3.org/2000/svg"><path d="M917.4 414.7s-11.4-43-19.7-58.9c-20.2-47.8-49.1-90.7-86-127.5-36.8-36.8-79.8-65.8-127.5-86-18.4-7.8-37.2-14.1-56.3-19l0.2-0.8c-3.1-0.9-6.6-1.5-10.6-1.7-29.2-6.6-59.1-10-89.5-10-54.2 0-106.7 10.6-156.2 31.5-47.8 20.2-90.7 49.1-127.5 86-36.8 36.8-65.8 79.8-86 127.5-20.9 49.5-31.5 102-31.5 156.2s10.6 106.7 31.5 156.2c20.2 47.8 49.1 90.7 86 127.5 36.8 36.8 79.8 65.8 127.5 86 49.5 20.9 102 31.5 156.2 31.5s106.7-10.6 156.2-31.5c47.8-20.2 90.7-49.1 127.5-86 36.8-36.8 65.8-79.8 86-127.5 20.9-49.5 31.5-102 31.5-156.2 0-33.2-4-65.7-11.8-97.3zM427.5 845.5c-0.7-1.9-1.4-3.9-2.1-5.9l5.7-1.5-3.6 7.4z m109.4-506.3c2.1 7.6-0.2 16.3-6.6 24.4-7.3 9.3-18.8 16.5-32.2 20.3-6.4 1.8-12.8 2.7-19.1 2.7-18.9 0-33.9-8.2-37.4-20.5-4.8-16.9 13-37.4 38.9-44.7 6.4-1.8 12.8-2.7 19.1-2.7 18.9 0 33.9 8.2 37.3 20.5zM766.1 254v31c0 6.9 5.6 12.5 12.5 12.5s12.5-5.6 12.5-12.5v-5.4c12.8 14.4 24.4 29.9 34.6 46.3-18.5-6.8-39.3-12.2-62.4-16.1-23-3.8-47.5-6-73.2-6.6v-13.1c0-6.9-5.6-12.5-12.5-12.5s-12.5 5.6-12.5 12.5v13c-36.5 0.6-74.9 4.3-114.2 10.9-4.4-5-9.9-9.2-16.3-12.5 13.6-33.2 27.5-61.8 41-84.3 9-14.9 16.6-25.1 22.7-32.1v6.8c0 6.9 5.6 12.5 12.5 12.5s12.5-5.6 12.5-12.5v-18.1c54 15.3 102.7 43.2 142.8 80.2z m-238.2-93.3c8.5 0 16.9 0.3 25.2 0.9-4.4 5.7-8.9 12-13.4 18.9-18.7 28.8-37.9 67.9-56.4 114.6-3.2 0.6-6.5 1.3-9.7 2.2-2.3 0.6-4.5 1.4-6.7 2.2-35.4-30.5-68.2-54.8-96.3-71.5-9.8-5.8-19-10.7-27.6-14.6 53.7-33.4 117.1-52.7 184.9-52.7zM263.3 281.2l24.3 16.7c2.2 1.5 4.6 2.2 7.1 2.2 4 0 7.9-1.9 10.3-5.4 3.9-5.7 2.4-13.5-3.2-17.4l-21.1-14.5c4.7-4.7 9.6-9.2 14.6-13.7l1 1.6c-0.7 0.4-1.1 0.5-1.2 0.5 0.1 0 13.9-2.9 56.9 23.9 21.8 13.6 46.8 32.2 73.7 54.8-3.5 5.3-6.2 11.5-7.8 17.4-43.9 14.7-85.1 32.5-121.7 52.6v-32.1c0-6.9-5.6-12.5-12.5-12.5S271 361.1 271 368v32c0 4.6 2.5 8.7 6.2 10.8-42.5 25.4-76.5 53.3-100.1 81.9 1.4-25.9 5.6-51.1 12.4-75.2l4.8 2.3c1.7 0.8 3.6 1.2 5.4 1.2 4.7 0 9.1-2.6 11.3-7.1 3-6.2 0.4-13.7-5.9-16.7l-7.9-3.8c14.9-41.5 37.5-79.5 66.1-112.2z m-76 316.9l3.3-0.9c-4.2-15.5-0.5-33.2 10.8-52.5 18.2-30.9 55.5-64 105-93.1 36.8-21.7 79.4-40.7 125.3-56.2 4 3.6 8.8 6.7 14 9.2-21.9 73.2-39.3 150.9-50 224.3-12.7 87.1-14.6 159.4-5.6 206.2-99.7-42.6-175.8-130.1-202.8-237z m340.6 265.2c-26.5 0-52.3-3-77.2-8.6l14-29.1c3-6.2 0.4-13.7-5.9-16.7-6.2-3-13.7-0.4-16.7 5.9l-3.6 7.5c-5.4-30.7-5.4-75.9-0.2-130l14.2-7.4c6.1-3.2 8.5-10.7 5.3-16.9-3.1-5.9-10.2-8.3-16.2-5.6 1.1-8.6 2.2-17.4 3.6-26.3 7.6-51.9 18.6-106.1 32.3-159.2l29.5-10.4c6.5-2.3 9.9-9.4 7.6-15.9s-9.4-9.9-15.9-7.6l-13.4 4.7c3.5-12.7 7.2-25.3 11-37.8 2.8-0.5 5.7-1.2 8.5-2 1.3-0.4 2.6-0.8 3.8-1.2 36.7 36.7 72.8 76.4 106.3 116.9l-12.5 11.2c-5.1 4.6-5.6 12.5-1 17.6 2.5 2.8 5.9 4.2 9.3 4.2 3 0 5.9-1 8.3-3.2l11.6-10.4c10.4 13 20.5 26 30.2 39 45 60.1 78.1 114.4 93.6 153.4-5-1.2-10.4 0.7-13.4 5.2-3.8 5.8-2.3 13.5 3.5 17.3l20 13.3c-62.3 57.2-145.4 92.1-236.6 92.1z m277.2-135.7c-15.8-44.8-52.2-106.3-104-175.5-44.6-59.5-96.7-119.8-150.4-174 3.6-4.7 6.4-9.7 8.4-14.7 71.3-12.1 139.3-13.7 196.1-4.2 53.8 8.9 92 27 108.9 50.8 9.8 32.3 15.1 66.5 15.1 102 0 81.2-27.7 156-74.1 215.6z" fill="#ffffff" /><path d="M647.4 235.9c1.2 6 6.4 10.1 12.3 10.1 0.8 0 1.6-0.1 2.4-0.2l36-7c6.8-1.3 11.2-7.9 9.9-14.7s-7.9-11.2-14.7-9.9l-36 7c-6.8 1.3-11.3 7.9-9.9 14.7zM367.4 346.4c2.2 4.5 6.6 7 11.3 7 1.8 0 3.7-0.4 5.4-1.3 6.2-3 8.8-10.5 5.8-16.7l-16-33c-3-6.2-10.5-8.8-16.7-5.8s-8.8 10.5-5.8 16.7l16 33.1zM586.3 655.6l-30-22c-5.6-4.1-13.4-2.9-17.5 2.7s-2.9 13.4 2.7 17.5l30 22c2.2 1.6 4.8 2.4 7.4 2.4 3.8 0 7.6-1.8 10.1-5.1 4.1-5.6 2.9-13.4-2.7-17.5zM542.8 771.9L512 751.5c-5.8-3.8-13.5-2.3-17.3 3.5s-2.3 13.5 3.5 17.3l30.8 20.5c2.1 1.4 4.5 2.1 6.9 2.1 4 0 8-2 10.4-5.6 3.8-5.8 2.2-13.6-3.5-17.4zM587.7 265l-37.4 13.2c-6.5 2.3-9.9 9.4-7.6 15.9 1.8 5.1 6.6 8.4 11.8 8.4 1.4 0 2.8-0.2 4.1-0.7l37.4-13.2c6.5-2.3 9.9-9.4 7.6-15.9s-9.3-10-15.9-7.7zM497.5 593.3c1.7 0.8 3.6 1.2 5.4 1.2 4.7 0 9.1-2.6 11.3-7.1l17.2-35.8c3-6.2 0.4-13.7-5.9-16.7s-13.7-0.4-16.7 5.9l-17.2 35.8c-3 6.3-0.3 13.7 5.9 16.7zM638.9 779c-6.2-3-13.7-0.4-16.7 5.9L605 820.6c-3 6.2-0.4 13.7 5.9 16.7 1.7 0.8 3.6 1.2 5.4 1.2 4.7 0 9.1-2.6 11.3-7.1l17.2-35.8c2.9-6.2 0.3-13.7-5.9-16.6zM683 659c-6.2-3-13.7-0.4-16.7 5.9l-17.2 35.8c-3 6.2-0.4 13.7 5.9 16.7 1.7 0.8 3.6 1.2 5.4 1.2 4.7 0 9.1-2.6 11.3-7.1l17.2-35.8c3-6.3 0.4-13.8-5.9-16.7z" fill="#ffffff" /></svg>