<?xml version="1.0" standalone="no"?><!DOCTYPE svg PUBLIC "-//W3C//DTD SVG 1.1//EN" "http://www.w3.org/Graphics/SVG/1.1/DTD/svg11.dtd"><svg class="icon" width="128px" height="128.00px" viewBox="0 0 1024 1024" version="1.1" xmlns="http://www.w3.org/2000/svg"><path d="M633.1 446.6c-20.1 10.9-43.9 22.3-67.9 24.6-42.3 4-81.1-13.4-115.3-28.8-7.1-3.2-13.9-6.3-20.6-9.1-6.4-2.7-13.7 0.3-16.4 6.7-2.7 6.4 0.3 13.7 6.7 16.4 6.5 2.7 13.1 5.6 20.1 8.8 33.2 14.9 70.3 31.6 112.9 31.6 5 0 10-0.2 15-0.8 28.5-2.7 55.1-15.4 77.4-27.5 6-3.2 8.3-10.8 5-16.9-3.2-6-10.8-8.3-16.9-5z" fill="#ffffff" /><path d="M465.5 421.8c2.1 0.8 4.3 1.8 6.5 2.7 14.1 6 30 12.7 48.4 17.1 12.2 2.9 24 4.3 35.6 4.3 13.2 0 26.1-1.9 38.9-5.7 24.2-7.2 45.1-25 67.3-43.8 12.2-10.3 24.8-21.1 38.6-30.6 5.7-3.9 7.1-11.7 3.2-17.4s-11.7-7.1-17.4-3.2c-14.8 10.3-27.9 21.4-40.6 32.2-21 17.9-39.1 33.2-58.2 38.9-19.7 5.8-39.8 6.2-61.6 1-16.4-3.9-31.3-10.2-44.4-15.8-2.2-1-4.4-1.9-6.6-2.8-23.7-9.9-39.9-24.3-45.6-40.4-4.4-12.2-2.6-25.6 5.1-40 3.3-6 1-13.6-5.1-16.9-6-3.3-13.6-1-16.9 5.1-11.1 20.5-13.4 41.3-6.7 60.2 8.1 22.9 29.2 42.5 59.5 55.1z" fill="#ffffff" /><path d="M963.7 417.7c-1.6-16.3-9.5-30.5-21.2-40.3L744.2 211.1l-203.3-4.5-25.8-76.5c-3.1-9.3-9-17.8-17.5-24.1s-18.3-9.5-28.1-9.9l-114.3-4c-12.5-0.4-25.3 2-37.3 7.8-12.1 5.8-22 14.2-29.5 24.2l-56.8 75.6-39.4-0.9c-12.5-0.3-25.2 2.3-37.1 8.2-11.9 5.9-21.8 14.4-29.1 24.4l-34 46.2c-5.3 7.3-9.1 15.8-10.8 25.3-1.6 9.5-0.9 18.9 1.7 27.5L164.7 602c4.8 16 14.7 30.7 29.2 41.4s31.5 15.7 48.3 15.5l141.3-1.6 1-0.4 99 310.5 193.4-6.9 88.4-93.1L693 653.9l93.7-1.1 163.8-191.5c9.6-11.9 14.8-27.3 13.2-43.6z m-496-271.6l20.2 59.4-106.2-2.5-19.8-60.7 105.8 3.8z m-252.5 450l-85.8-284.9 10-13.6c4.3-5.9 11.8-9.2 19.5-7.9 7.7 1.3 13.6 6.8 15.8 13.8l68.5 222.7c2.3 7.5 2.9 15.7 1.3 24s-5.1 15.7-10.1 21.9l-19.2 24z m319.7 262.3c-2 9-6.2 16.9-12 23.2l-10.6 11.5-63.9-200.4c-2.9-9-2.2-19.2 2.7-28.2s13.1-15.1 22.2-17.5l60.2 185.3c2.7 8.1 3.3 17.1 1.4 26.1z m119.8 52.8l-94.3 3.4 21.8-23.7 94.6-2.9-22.1 23.2z m47.5-74l-75.9 2.3c-10.4 0.3-21.1-2.6-30.3-9.1s-15.6-15.5-18.8-25.4l-59.7-183.4 111.5-0.5 73.2 216.1z m189.7-384.5L818.7 539l-98.6 0.5c-6.9 0-12.5 5.7-12.4 12.6 0 6.9 5.6 12.4 12.5 12.4h0.1l77.1-0.4-33.1 38.9-88.2 1-11.2-33.1-193.5 0.9-29.5 34.9-205 2.3 19-23.8c4.5-5.7 10.3-10.4 17.3-13.8 6.9-3.4 14.3-5 21.5-5l82.9-0.5c6.9 0 12.5-5.7 12.4-12.6 0-6.9-5.6-12.4-12.5-12.4h-0.1l-66.4 0.3c-10.4 0-20.9-3.1-29.9-9.7s-15.1-15.7-18.2-25.6l-23.1-75.1c15.3 23.8 41.2 45.1 78.5 64.6 17 8.9 37.1 17.8 61.2 27.3 1.5 0.6 3.1 0.9 4.6 0.9 5 0 9.7-3 11.6-7.9 2.5-6.4-0.7-13.7-7.1-16.2-23.3-9.1-42.5-17.7-58.7-26.2-45.1-23.7-70.9-49.1-78.9-77.6-1.9-6.7-8.7-10.6-15.4-8.7-3.3 0.9-5.9 3.1-7.5 5.8l-36.2-117.7c-1.8-5.9-0.9-12.6 3.2-17.9 4-5.3 10.2-8.1 16.4-7.9l81.3 1.8c-19.7 18.8-34.9 36.8-46.2 54.4-3.7 5.8-2 13.6 3.8 17.3 2.1 1.4 4.4 2 6.7 2 4.1 0 8.2-2 10.5-5.8 13.3-20.8 34-43.4 61.5-67.1l52.6 1.2c-40.2 28.1-71.3 57.5-72.2 93.3-0.6 27.4 14.2 52.4 44.1 74.4 2.2 1.6 4.8 2.4 7.4 2.4 3.8 0 7.6-1.7 10.2-5 4.1-5.6 2.9-13.4-2.7-17.5-23.3-17.1-34.4-34.6-33.9-53.6 0.7-29.2 35.3-57.3 91-93.1l117.6 2.6c-36.4 27-36.3 59.7-36.3 75.7v1.7c0 14.6 6.6 28.6 18.3 38.2 10.7 8.8 24.5 13.4 39.8 13.4 5.2 0 10.5-0.5 16-1.5 6.8-1.3 11.2-7.8 9.9-14.6s-7.8-11.2-14.6-9.9c-14.2 2.8-26.6 0.4-35-6.5-5.9-4.9-9.3-11.8-9.3-19v-1.8c0-15.1-0.1-37.9 29.4-57.9 6.8-4.6 18.4-6.4 31.8-8.5 11-1.7 23.1-3.6 35.3-7.4l50.2 1.1c-6.2 12.7-18 22.3-29.5 31.6-6.5 5.3-12.7 10.4-18 16-4.7 5-4.5 13 0.5 17.7 2.4 2.3 5.5 3.4 8.6 3.4 3.4 0 6.7-1.3 9-3.9 4.3-4.5 9.8-9 15.7-13.8 14.9-12.1 33.2-27.1 40.3-50.4l20.1 0.4 45.1 37.8c-9.9 6.9-21 13-33.4 19.3-6.1 3.1-8.6 10.6-5.5 16.8 2.2 4.4 6.6 6.9 11.2 6.9 1.9 0 3.8-0.4 5.6-1.4 14-7 28.4-14.9 41.8-25.1l31 26c-24.9 26-57.3 40-88.6 53.6-12.9 5.6-25.2 10.9-36.9 17-6.1 3.2-8.5 10.8-5.3 16.9 2.2 4.2 6.6 6.7 11.1 6.7 2 0 4-0.5 5.8-1.3 10.9-5.7 22.8-10.9 35.3-16.3 32-13.9 68.4-29.6 96.8-59.4 0.4-0.4 0.7-0.8 1-1.2l42.8 35.9c-33.2 29.1-72.4 46.6-110.5 63.5-13.4 6-26.2 11.6-38.6 17.8-11.7 5.7-23.2 11.7-34.4 17.5-13 6.7-25.3 13.1-37.7 19.1-6.2 3-8.8 10.5-5.8 16.7 2.1 4.4 6.6 7 11.2 7 1.9 0 3.7-0.4 5.7-1.1 12.7-6.2 25.6-12.9 38.2-19.4 11-5.7 22.5-11.6 33.9-17.3 12-5.9 24.5-11.5 37.7-17.4 37.6-16.7 79.8-35.6 115.8-66.7 1.3 3.4 2.2 7 2.5 10.8 1 11.2-2.6 21.6-9.3 29.4z" fill="#ffffff" /></svg>